<svg width="24" height="25" viewBox="0 0 24 25" fill="none" xmlns="http://www.w3.org/2000/svg">
<path fill-rule="evenodd" clip-rule="evenodd" d="M13.165 12.4934L13.1634 12.1393C13.1513 10.7348 13.0666 9.48174 12.9206 8.68763C12.9206 8.67331 12.7613 7.88572 12.6599 7.62355C12.5006 7.24463 12.2126 6.92299 11.8515 6.7192C11.5624 6.5738 11.2592 6.5 10.9417 6.5C10.6922 6.51157 10.2806 6.63714 9.98692 6.74242L9.74283 6.83596C8.12612 7.47815 5.03561 9.57656 3.85199 10.8598L3.76473 10.9495L3.37527 11.3698C3.12982 11.6915 3 12.0847 3 12.5077C3 12.8866 3.11563 13.2656 3.3469 13.5718C3.41614 13.671 3.52766 13.7983 3.62693 13.9058L4.006 14.3026C5.31046 15.6243 8.13485 17.4782 9.59883 18.0924C9.59883 18.1057 10.5086 18.4857 10.9417 18.5H10.9995C11.6639 18.5 12.2846 18.1211 12.6021 17.5086C12.6888 17.3412 12.772 17.0132 12.8352 16.7252L12.949 16.1813C13.0788 15.3067 13.165 13.965 13.165 12.4934ZM19.4967 14.0183C20.3269 14.0183 21 13.3387 21 12.5004C21 11.6622 20.3269 10.9825 19.4967 10.9825L15.7975 11.3097C15.1463 11.3097 14.6183 11.8417 14.6183 12.5004C14.6183 13.1581 15.1463 13.6912 15.7975 13.6912L19.4967 14.0183Z" fill="#353535"/>
</svg>
