<svg width="21" height="21" viewBox="0 0 21 21" fill="none" xmlns="http://www.w3.org/2000/svg">
<path d="M1.25011 1.24988L3.33011 1.60988L4.29311 13.0829C4.37011 14.0199 5.15311 14.7389 6.09311 14.7359H11.5476H17.0021C17.8991 14.7379 18.6601 14.0779 18.7871 13.1899L19.7361 6.63188C19.8421 5.89888 19.3331 5.21888 18.6011 5.11288C18.5371 5.10388 3.66411 5.09888 3.66411 5.09888" stroke="#606060" stroke-width="1.5" stroke-linecap="round" stroke-linejoin="round"/>
<path d="M12.6251 8.7948H15.3981" stroke="#606060" stroke-width="1.5" stroke-linecap="round" stroke-linejoin="round"/>
<path fill-rule="evenodd" clip-rule="evenodd" d="M5.65441 18.2025C5.95541 18.2025 6.19841 18.4465 6.19841 18.7465C6.19841 19.0475 5.95541 19.2915 5.65441 19.2915C5.35341 19.2915 5.11041 19.0475 5.11041 18.7465C5.11041 18.4465 5.35341 18.2025 5.65441 18.2025Z" fill="#606060" stroke="#606060" stroke-width="1.5" stroke-linecap="round" stroke-linejoin="round"/>
<path fill-rule="evenodd" clip-rule="evenodd" d="M16.9347 18.2025C17.2357 18.2025 17.4797 18.4465 17.4797 18.7465C17.4797 19.0475 17.2357 19.2915 16.9347 19.2915C16.6337 19.2915 16.3907 19.0475 16.3907 18.7465C16.3907 18.4465 16.6337 18.2025 16.9347 18.2025Z" fill="#606060" stroke="#606060" stroke-width="1.5" stroke-linecap="round" stroke-linejoin="round"/>
</svg>
