<svg width="20" height="20" viewBox="0 0 20 20" fill="none" xmlns="http://www.w3.org/2000/svg">
<path opacity="0.4" d="M19.9999 10C19.9999 15.523 15.5229 20 9.99991 20C4.47691 20 -9.15527e-05 15.523 -9.15527e-05 10C-9.15527e-05 4.478 4.47691 0 9.99991 0C15.5229 0 19.9999 4.478 19.9999 10Z" fill="#F3AF00"/>
<path d="M13.8598 6.70505L12.2398 11.8251C12.1798 12.0351 12.0098 12.2051 11.7998 12.2661L6.69984 13.8651C6.35984 13.9761 6.02984 13.6451 6.13984 13.3051L7.73984 8.17505C7.79984 7.96505 7.96984 7.80505 8.17984 7.73505L13.2998 6.13505C13.6498 6.02505 13.9698 6.35505 13.8598 6.70505Z" fill="#F3AF00"/>
</svg>
