<svg width="18" height="20" viewBox="0 0 18 20" fill="none" xmlns="http://www.w3.org/2000/svg">
<path opacity="0.4" d="M13.191 0H4.81C1.77 0 0 1.78 0 4.83V15.16C0 18.26 1.77 20 4.81 20H13.191C16.28 20 18 18.26 18 15.16V4.83C18 1.78 16.28 0 13.191 0Z" fill="#F3AF00"/>
<path fill-rule="evenodd" clip-rule="evenodd" d="M5.08002 4.6499V4.6599C4.64902 4.6599 4.30002 5.0099 4.30002 5.4399C4.30002 5.8699 4.64902 6.2199 5.08002 6.2199H8.06902C8.50002 6.2199 8.85002 5.8699 8.85002 5.4289C8.85002 4.9999 8.50002 4.6499 8.06902 4.6499H5.08002ZM12.92 10.7399H5.08002C4.64902 10.7399 4.30002 10.3899 4.30002 9.9599C4.30002 9.5299 4.64902 9.1789 5.08002 9.1789H12.92C13.35 9.1789 13.7 9.5299 13.7 9.9599C13.7 10.3899 13.35 10.7399 12.92 10.7399ZM12.92 15.3099H5.08002C4.78002 15.3499 4.49002 15.1999 4.33002 14.9499C4.17002 14.6899 4.17002 14.3599 4.33002 14.1099C4.49002 13.8499 4.78002 13.7099 5.08002 13.7399H12.92C13.319 13.7799 13.62 14.1199 13.62 14.5299C13.62 14.9289 13.319 15.2699 12.92 15.3099Z" fill="#F3AF00"/>
</svg>
