<svg width="24" height="24" viewBox="0 0 24 24" fill="none" xmlns="http://www.w3.org/2000/svg">
<path fill-rule="evenodd" clip-rule="evenodd" d="M12.5887 2.27312C12.3936 2.25776 12.1972 2.25 12 2.25C10.0109 2.25 8.10323 3.04018 6.69671 4.4467C5.29019 5.85322 4.50001 7.76088 4.50001 9.75C4.50001 13.0631 3.72564 15.5981 3.20532 16.4944C3.07245 16.7222 3.00201 16.9811 3.00111 17.2449C3.0002 17.5086 3.06886 17.768 3.20017 17.9967C3.33147 18.2255 3.52077 18.4156 3.74899 18.5478C3.9772 18.6801 4.23625 18.7498 4.50001 18.75H8.32595C8.49899 19.5967 8.95916 20.3577 9.62864 20.9042C10.2981 21.4507 11.1358 21.7492 12 21.7492C12.8642 21.7492 13.7019 21.4507 14.3714 20.9042C15.0409 20.3577 15.501 19.5967 15.6741 18.75H19.5C19.7637 18.7496 20.0226 18.6798 20.2507 18.5475C20.4788 18.4151 20.668 18.225 20.7992 17.9963C20.9303 17.7676 20.9989 17.5083 20.998 17.2446C20.997 16.9809 20.9266 16.7222 20.7938 16.4944C20.2735 15.5981 19.5 13.0622 19.5 9.75C19.5 9.16402 19.4314 8.58512 19.2987 8.02401C18.5305 8.63498 17.5579 9 16.5 9C14.0147 9 12 6.98528 12 4.5C12 3.68988 12.2141 2.92976 12.5887 2.27312ZM10.7014 19.8369C11.0812 20.1055 11.5348 20.2499 12 20.25C12.4652 20.2499 12.9189 20.1055 13.2986 19.8369C13.6784 19.5683 13.9656 19.1886 14.1206 18.75H9.87939C10.0344 19.1886 10.3216 19.5683 10.7014 19.8369Z" fill="white"/>
<circle cx="16.5" cy="4.5" r="3" fill="#FF1D34"/>
</svg>
