<svg width="21" height="20" viewBox="0 0 21 20" fill="none" xmlns="http://www.w3.org/2000/svg">
<path d="M15.1292 10C15.1292 10.1989 15.0501 10.3897 14.9095 10.5303C14.7688 10.671 14.5781 10.75 14.3792 10.75H6.87915C6.68024 10.75 6.48948 10.671 6.34882 10.5303C6.20817 10.3897 6.12915 10.1989 6.12915 10C6.12915 9.80109 6.20817 9.61032 6.34882 9.46967C6.48948 9.32902 6.68024 9.25 6.87915 9.25H14.3792C14.5781 9.25 14.7688 9.32902 14.9095 9.46967C15.0501 9.61032 15.1292 9.80109 15.1292 10ZM20.3792 10C20.3792 11.9284 19.8073 13.8134 18.736 15.4168C17.6646 17.0202 16.1419 18.2699 14.3603 19.0078C12.5787 19.7458 10.6183 19.9389 8.72702 19.5627C6.83571 19.1865 5.09843 18.2579 3.73486 16.8943C2.3713 15.5307 1.4427 13.7934 1.0665 11.9021C0.690292 10.0108 0.883375 8.05042 1.62133 6.26884C2.35928 4.48726 3.60897 2.96452 5.21234 1.89317C6.81572 0.821828 8.70079 0.25 10.6292 0.25C13.2142 0.25273 15.6925 1.28084 17.5204 3.10872C19.3483 4.93661 20.3764 7.41498 20.3792 10ZM18.8792 10C18.8792 8.3683 18.3953 6.77325 17.4888 5.41655C16.5823 4.05984 15.2938 3.00242 13.7863 2.37799C12.2788 1.75357 10.62 1.59019 9.01966 1.90852C7.41932 2.22685 5.94931 3.01259 4.79552 4.16637C3.64174 5.32015 2.856 6.79016 2.53768 8.3905C2.21935 9.99085 2.38273 11.6496 3.00715 13.1571C3.63157 14.6646 4.68899 15.9531 6.0457 16.8596C7.40241 17.7661 8.99746 18.25 10.6292 18.25C12.8164 18.2475 14.9134 17.3775 16.46 15.8309C18.0067 14.2843 18.8767 12.1873 18.8792 10Z" fill="#FF801A"/>
</svg>
