<svg width="8" height="8" viewBox="0 0 8 8" fill="none" xmlns="http://www.w3.org/2000/svg">
<path d="M5.97283 4.77337C5.88649 4.85704 5.84683 4.97804 5.86649 5.09671L6.16283 6.73671C6.18783 6.87571 6.12916 7.01637 6.01283 7.09671C5.89883 7.18004 5.74716 7.19004 5.62283 7.12337L4.14649 6.35337C4.09516 6.32604 4.03816 6.31137 3.97983 6.30971H3.88949C3.85816 6.31437 3.82749 6.32437 3.79949 6.33971L2.32283 7.11337C2.24983 7.15004 2.16716 7.16304 2.08616 7.15004C1.88883 7.11271 1.75716 6.92471 1.78949 6.72637L2.08616 5.08637C2.10583 4.96671 2.06616 4.84504 1.97983 4.76004L0.77616 3.59337C0.675493 3.49571 0.640493 3.34904 0.686493 3.21671C0.73116 3.08471 0.84516 2.98837 0.982826 2.96671L2.63949 2.72637C2.76549 2.71337 2.87616 2.63671 2.93283 2.52337L3.66283 1.02671C3.68016 0.993374 3.70249 0.962707 3.72949 0.936707L3.75949 0.913374C3.77516 0.896041 3.79316 0.881707 3.81316 0.870041L3.84949 0.856707L3.90616 0.833374H4.04649C4.17183 0.846374 4.28216 0.921374 4.33983 1.03337L5.07949 2.52337C5.13283 2.63237 5.23649 2.70804 5.35616 2.72637L7.01283 2.96671C7.15283 2.98671 7.26983 3.08337 7.31616 3.21671C7.35983 3.35037 7.32216 3.49704 7.21949 3.59337L5.97283 4.77337Z" fill="#F3AF00"/>
</svg>
