<svg width="21" height="20" viewBox="0 0 21 20" fill="none" xmlns="http://www.w3.org/2000/svg">
<path fill-rule="evenodd" clip-rule="evenodd" d="M0.5 8.66993C0.5 3.88166 4.34034 0 9.07764 0C11.3526 0 13.5343 0.913436 15.1429 2.53936C16.7516 4.16529 17.6553 6.37052 17.6553 8.66993C17.6553 13.4582 13.8149 17.3399 9.07764 17.3399C4.34034 17.3399 0.5 13.4582 0.5 8.66993ZM17.5134 15.6543L20.068 17.7164H20.1124C20.6292 18.2388 20.6292 19.0858 20.1124 19.6082C19.5955 20.1306 18.7576 20.1306 18.2407 19.6082L16.1207 17.1785C15.9203 16.9766 15.8076 16.7024 15.8076 16.4164C15.8076 16.1304 15.9203 15.8562 16.1207 15.6543C16.5072 15.2704 17.1268 15.2704 17.5134 15.6543Z" fill="#FF801A"/>
</svg>
