<svg width="79" height="79" viewBox="0 0 79 79" fill="none" xmlns="http://www.w3.org/2000/svg">
<rect width="79" height="79" rx="39.5" fill="#22CF00" fill-opacity="0.16"/>
<rect x="10" y="10" width="59" height="59" rx="29.5" fill="#22CF00"/>
<path d="M54.193 32.2243L35.693 50.7243C35.5856 50.8318 35.4581 50.9171 35.3177 50.9753C35.1773 51.0335 35.0269 51.0634 34.8749 51.0634C34.723 51.0634 34.5725 51.0335 34.4321 50.9753C34.2918 50.9171 34.1642 50.8318 34.0569 50.7243L25.9631 42.6306C25.7462 42.4136 25.6243 42.1194 25.6243 41.8125C25.6243 41.5057 25.7462 41.2114 25.9631 40.9945C26.1801 40.7775 26.4743 40.6556 26.7812 40.6556C27.088 40.6556 27.3822 40.7775 27.5992 40.9945L34.8749 48.2716L52.5569 30.5882C52.7738 30.3713 53.0681 30.2494 53.3749 30.2494C53.6817 30.2494 53.976 30.3713 54.193 30.5882C54.4099 30.8052 54.5318 31.0995 54.5318 31.4063C54.5318 31.7131 54.4099 32.0074 54.193 32.2243Z" fill="#F3F4F6"/>
</svg>
