<svg width="21" height="20" viewBox="0 0 21 20" fill="none" xmlns="http://www.w3.org/2000/svg">
<path opacity="0.4" fill-rule="evenodd" clip-rule="evenodd" d="M10.5 0.25C3.301 0.25 0.75 2.801 0.75 10C0.75 17.198 3.301 19.75 10.5 19.75C17.699 19.75 20.25 17.198 20.25 10C20.25 2.801 17.699 0.25 10.5 0.25Z" fill="#F3AF00"/>
<path d="M12.7092 11.8999C12.7092 12.4529 13.1612 12.8999 13.7132 12.8999C14.2652 12.8999 14.7132 12.4529 14.7132 11.8999C14.7132 11.3469 14.2652 10.8999 13.7132 10.8999H13.7042C13.1522 10.8999 12.7092 11.3469 12.7092 11.8999Z" fill="#F3AF00"/>
<path d="M9.7092 7.8999C9.7092 8.4529 10.1612 8.8999 10.7132 8.8999C11.2652 8.8999 11.7132 8.4529 11.7132 7.8999C11.7132 7.3469 11.2652 6.8999 10.7132 6.8999H10.7042C10.1522 6.8999 9.7092 7.3469 9.7092 7.8999Z" fill="#F3AF00"/>
<path d="M6.7002 11.8999C6.7002 12.4529 7.1532 12.8999 7.7052 12.8999C8.2572 12.8999 8.7052 12.4529 8.7052 11.8999C8.7052 11.3469 8.2572 10.8999 7.7052 10.8999H7.6962C7.1442 10.8999 6.7002 11.3469 6.7002 11.8999Z" fill="#F3AF00"/>
</svg>
